<?xml version="1.0" standalone="no"?>
<!DOCTYPE svg PUBLIC "-//W3C//DTD SVG 20010904//EN"
 "http://www.w3.org/TR/2001/REC-SVG-20010904/DTD/svg10.dtd">
<svg version="1.0" xmlns="http://www.w3.org/2000/svg"
 width="128.000000pt" height="128.000000pt" viewBox="0 0 128.000000 128.000000"
 preserveAspectRatio="xMidYMid meet">

<g transform="translate(0.000000,128.000000) scale(0.100000,-0.100000)"
fill="#000000" stroke="none">
<path d="M662 652 c-97 -334 -120 -427 -110 -433 15 -10 77 -23 82 -18 6 8
245 844 241 847 -1 2 -23 9 -47 16 l-43 14 -123 -426z"/>
<path d="M342 779 c-202 -141 -202 -141 -180 -158 31 -24 360 -256 376 -265 9
-5 12 9 12 61 l0 68 -101 70 c-55 38 -103 73 -105 77 -3 4 43 40 101 80 l105
72 0 68 c0 37 -1 68 -2 68 -2 -1 -94 -64 -206 -141z"/>
<path d="M862 775 c-18 -66 -16 -69 38 -106 27 -19 50 -37 50 -41 0 -4 -38
-33 -84 -65 l-84 -58 -25 -82 c-13 -46 -22 -83 -20 -83 3 0 97 65 209 144
l205 145 -110 77 c-61 43 -123 86 -139 96 l-28 17 -12 -44z"/>
</g>
</svg>
